<?xml version="1.0" encoding="utf-8"?>
<!-- Uploaded to: SVG Repo, www.svgrepo.com, Generator: SVG Repo Mixer Tools -->
<svg fill="#000000" width="800px" height="800px" viewBox="0 0 32 32" version="1.1" xmlns="http://www.w3.org/2000/svg">
<title>rss</title>
<path d="M20.885 30.996h-5.83c-0.037-7.745-6.306-14.014-14.047-14.052h-0.004v-5.83c10.958 0.055 19.826 8.924 19.881 19.877l0 0.005zM5.117 22.767c0.001 0 0.001 0 0.002 0 2.272 0 4.114 1.842 4.114 4.114s-1.842 4.114-4.114 4.114c-2.271 0-4.113-1.84-4.114-4.111v-0c0.003-2.271 1.842-4.112 4.112-4.118h0.001zM24.996 30.996c-0.064-13.225-10.767-23.928-23.986-23.993l-0.006-0v-5.998c16.531 0.082 29.91 13.461 29.991 29.984l0 0.008z"></path>
</svg>