<svg xmlns="http://www.w3.org/2000/svg" fill="none" viewBox="0 0 115 116">
  <path fill="#09040c" fill-rule="evenodd" d="M89.222 91.994A52.923 52.923 0 0 1 57.5 102.492a52.926 52.926 0 0 1-32.07-10.758l4.359-11.975c7.313 6.664 17.037 10.727 27.71 10.727A41 41 0 0 0 84.88 80.06l4.343 11.935Z" clip-rule="evenodd"/>
  <path fill="#09040c" fill-rule="evenodd" d="m39.505 14.659.963 2.116 7.131.557-6.51 2.962-.558 7.132-2.962-6.511-7.131-.557 6.51-2.962.557-7.132 2 4.395ZM26.265 30.61l2.439-.678 3.59-.998-4.466 4.384 1.676 6.03-4.384-4.466-6.03 1.676 4.466-4.384-1.676-6.03 2.473 2.52 1.911 1.946Zm14.927-14.87-.714-1.57a38.9 38.9 0 0 1 17.02-3.894c21.57 0 39.056 17.486 39.056 39.056 0 21.57-17.486 39.057-39.056 39.057-21.57 0-39.056-17.486-39.056-39.057 0-4.18.657-8.207 1.873-11.983l4.477-1.244.424.432a34.544 34.544 0 0 0-2.368 10.626 37.38 37.38 0 0 1 3.035.128l-.36 4.325a33.011 33.011 0 0 0-2.675-.114c1.076 17.446 15.036 31.405 32.48 32.48-.001-.9-.04-1.792-.113-2.673l4.325-.36c.083 1 .127 2.012.128 3.033 17.445-1.076 31.404-15.035 32.48-32.48a37.364 37.364 0 0 1-3.034-.128l.36-4.325c.882.073 1.773.112 2.674.113-1.076-17.444-15.035-31.403-32.48-32.48a33 33 0 0 0 .114 2.674l-4.325.36c-.083-1-.127-2.012-.128-3.033-2.852.175-5.61.695-8.233 1.518l-5.904-.46ZM30.17 21.43l6.046.473a34.924 34.924 0 0 0-6.51 6.622l-3.114.866-1.634-1.664a39.258 39.258 0 0 1 5.212-6.296Zm5.587 5.153 3.41 4.141 5.274-.98-4.141 3.41.98 5.274-3.41-4.142-5.274.98 4.142-3.41-.98-5.273Zm21.306-.763a36.66 36.66 0 0 0 2.376 5.73l3.854-1.994a32.332 32.332 0 0 1-2.095-5.053l-4.135 1.317Zm6.97 12.595a37.097 37.097 0 0 0 4.384 4.383l2.801-3.314a32.763 32.763 0 0 1-3.87-3.87l-3.315 2.8Zm11.248 8.978a36.68 36.68 0 0 0 5.73 2.376l1.317-4.135a32.324 32.324 0 0 1-5.052-2.095l-1.995 3.854ZM57.936 72.844a36.666 36.666 0 0 0-2.376-5.731l-3.854 1.995a32.29 32.29 0 0 1 2.095 5.052l4.135-1.316Zm-6.97-12.595a37.097 37.097 0 0 0-4.384-4.384l-2.801 3.315a32.753 32.753 0 0 1 3.87 3.87l3.315-2.801Zm-11.248-8.978a36.68 36.68 0 0 0-5.73-2.376L32.67 53.03a32.337 32.337 0 0 1 5.052 2.095l1.995-3.854Z" clip-rule="evenodd"/>
  <path fill="#09040c" fill-rule="evenodd" d="M53.397 77.246c17.745 0 32.13-14.385 32.13-32.13a32.01 32.01 0 0 0-2.817-13.174 30.356 30.356 0 0 1 5.54 17.53c0 16.843-13.654 30.496-30.496 30.496a30.356 30.356 0 0 1-17.53-5.538 32.014 32.014 0 0 0 13.173 2.816Z" clip-rule="evenodd"/>
  <style>
    @media (prefers-color-scheme:dark){:root{filter:invert(100%)}}
  </style>
</svg>