<svg xmlns="http://www.w3.org/2000/svg" width="40" height="40"><path fill-rule="evenodd" fill="#1b1817" d="M19.998 4C11.164 4 4 11.163 4 20c0 7.069 4.584 13.066 10.942 15.182.8.147 1.092-.347 1.092-.772 0-.38-.013-1.385-.021-2.72-4.45.967-5.39-2.145-5.39-2.145-.728-1.848-1.777-2.341-1.777-2.341-1.452-.992.11-.972.11-.972 1.606.112 2.451 1.649 2.451 1.649 1.427 2.445 3.745 1.738 4.656 1.329.146-1.033.56-1.739 1.016-2.139-3.552-.404-7.288-1.776-7.288-7.907 0-1.748.624-3.175 1.647-4.294-.164-.404-.714-2.032.157-4.234 0 0 1.343-.43 4.4 1.64a15.366 15.366 0 014.005-.54 15.36 15.36 0 014.005.538c3.055-2.07 4.396-1.64 4.396-1.64.873 2.204.324 3.83.16 4.236 1.025 1.118 1.644 2.545 1.644 4.293 0 6.147-3.741 7.5-7.304 7.895.573.494 1.085 1.47 1.085 2.964 0 2.138-.02 3.864-.02 4.388 0 .428.288.926 1.1.77C31.42 33.06 36 27.068 36 20c0-8.837-7.165-16-16.002-16"/></svg>