<?xml version="1.0" encoding="UTF-8" standalone="no"?>
<!DOCTYPE svg PUBLIC "-//W3C//DTD SVG 1.1//EN" "http://www.w3.org/Graphics/SVG/1.1/DTD/svg11.dtd">
<svg width="100%" height="100%" viewBox="0 0 754 754" version="1.1" xmlns="http://www.w3.org/2000/svg" xmlns:xlink="http://www.w3.org/1999/xlink" xml:space="preserve" xmlns:serif="http://www.serif.com/" style="fill-rule:evenodd;clip-rule:evenodd;stroke-linecap:round;stroke-linejoin:round;stroke-miterlimit:1.5;">
    <g transform="matrix(1,0,0,1,-80.5,-81.3647)">
        <g transform="matrix(1,0,0,1,-156.5,72.8647)">
            <g id="outer-circle" serif:id="outer circle" transform="matrix(1.30605,0,0,1.30605,-86.0427,-163.041)">
                <circle cx="536" cy="420" r="281" style="fill:rgb(17,36,65);stroke:rgb(4,7,9);stroke-width:15.31px;"/>
            </g>
            <g transform="matrix(0.958923,0,0,0.958923,100.017,-17.2476)">
                <g transform="matrix(-62.1924,-70.2917,70.2917,-62.1924,338.127,620.341)">
                    <path d="M0.378,-0.507L0.276,-0.507L0.276,-0.53C0.276,-0.553 0.271,-0.574 0.26,-0.591C0.249,-0.608 0.23,-0.616 0.204,-0.616C0.19,-0.616 0.179,-0.613 0.17,-0.608C0.161,-0.603 0.154,-0.596 0.149,-0.588C0.144,-0.579 0.14,-0.57 0.138,-0.559C0.136,-0.548 0.135,-0.536 0.135,-0.524C0.135,-0.51 0.136,-0.498 0.137,-0.489C0.138,-0.48 0.14,-0.471 0.144,-0.464C0.148,-0.457 0.154,-0.45 0.162,-0.445C0.169,-0.44 0.18,-0.434 0.193,-0.429L0.271,-0.398C0.294,-0.389 0.312,-0.379 0.326,-0.368C0.34,-0.356 0.351,-0.342 0.359,-0.327C0.366,-0.311 0.371,-0.293 0.374,-0.273C0.377,-0.252 0.378,-0.229 0.378,-0.203C0.378,-0.173 0.375,-0.145 0.369,-0.12C0.363,-0.094 0.353,-0.072 0.34,-0.054C0.326,-0.035 0.308,-0.021 0.285,-0.01C0.262,0.001 0.235,0.006 0.202,0.006C0.177,0.006 0.154,0.002 0.133,-0.007C0.112,-0.016 0.093,-0.028 0.078,-0.043C0.063,-0.058 0.05,-0.076 0.042,-0.097C0.033,-0.117 0.028,-0.139 0.028,-0.163L0.028,-0.201L0.13,-0.201L0.13,-0.169C0.13,-0.15 0.135,-0.134 0.147,-0.119C0.158,-0.103 0.176,-0.096 0.202,-0.096C0.219,-0.096 0.233,-0.098 0.243,-0.104C0.252,-0.109 0.26,-0.116 0.265,-0.125C0.27,-0.134 0.274,-0.146 0.275,-0.159C0.276,-0.171 0.276,-0.186 0.276,-0.202C0.276,-0.221 0.275,-0.236 0.274,-0.248C0.273,-0.26 0.27,-0.27 0.266,-0.277C0.261,-0.284 0.255,-0.29 0.248,-0.295C0.24,-0.3 0.23,-0.305 0.217,-0.31L0.144,-0.34C0.1,-0.358 0.07,-0.382 0.056,-0.412C0.041,-0.441 0.033,-0.478 0.033,-0.523C0.033,-0.55 0.037,-0.575 0.044,-0.599C0.051,-0.623 0.062,-0.644 0.077,-0.661C0.091,-0.678 0.109,-0.692 0.131,-0.703C0.152,-0.713 0.178,-0.718 0.208,-0.718C0.233,-0.718 0.257,-0.713 0.278,-0.704C0.299,-0.695 0.317,-0.682 0.332,-0.667C0.363,-0.635 0.378,-0.598 0.378,-0.557L0.378,-0.507Z" style="fill:white;fill-rule:nonzero;"/>
                </g>
                <g transform="matrix(-51.9098,-78.1933,78.1933,-51.9098,312.78,591.786)">
                    <path d="M0.042,-0.544C0.042,-0.573 0.047,-0.598 0.057,-0.62C0.067,-0.642 0.08,-0.66 0.097,-0.675C0.113,-0.689 0.131,-0.7 0.152,-0.707C0.172,-0.714 0.192,-0.718 0.213,-0.718C0.234,-0.718 0.254,-0.714 0.275,-0.707C0.295,-0.7 0.313,-0.689 0.33,-0.675C0.346,-0.66 0.359,-0.642 0.369,-0.62C0.379,-0.598 0.384,-0.573 0.384,-0.544L0.384,-0.168C0.384,-0.138 0.379,-0.112 0.369,-0.091C0.359,-0.07 0.346,-0.052 0.33,-0.038C0.313,-0.023 0.295,-0.012 0.275,-0.005C0.254,0.002 0.234,0.006 0.213,0.006C0.192,0.006 0.172,0.002 0.152,-0.005C0.131,-0.012 0.113,-0.023 0.097,-0.038C0.08,-0.052 0.067,-0.07 0.057,-0.091C0.047,-0.112 0.042,-0.138 0.042,-0.168L0.042,-0.544ZM0.144,-0.168C0.144,-0.143 0.151,-0.125 0.165,-0.114C0.178,-0.102 0.194,-0.096 0.213,-0.096C0.232,-0.096 0.248,-0.102 0.262,-0.114C0.275,-0.125 0.282,-0.143 0.282,-0.168L0.282,-0.544C0.282,-0.569 0.275,-0.587 0.262,-0.599C0.248,-0.61 0.232,-0.616 0.213,-0.616C0.194,-0.616 0.178,-0.61 0.165,-0.599C0.151,-0.587 0.144,-0.569 0.144,-0.544L0.144,-0.168Z" style="fill:white;fill-rule:nonzero;"/>
                </g>
                <g transform="matrix(-40.4396,-84.6963,84.6963,-40.4396,290.637,558.351)">
                    <path d="M0.372,-0.203L0.372,-0.159C0.372,-0.137 0.368,-0.116 0.36,-0.097C0.351,-0.077 0.34,-0.059 0.325,-0.044C0.31,-0.029 0.293,-0.017 0.274,-0.008C0.254,0.002 0.233,0.006 0.21,0.006C0.191,0.006 0.171,0.003 0.151,-0.002C0.131,-0.007 0.113,-0.017 0.097,-0.03C0.081,-0.043 0.068,-0.061 0.058,-0.082C0.047,-0.102 0.042,-0.129 0.042,-0.162L0.042,-0.554C0.042,-0.577 0.046,-0.599 0.054,-0.619C0.062,-0.639 0.073,-0.656 0.088,-0.671C0.103,-0.686 0.12,-0.697 0.141,-0.706C0.161,-0.714 0.183,-0.718 0.208,-0.718C0.256,-0.718 0.295,-0.702 0.325,-0.671C0.34,-0.656 0.351,-0.638 0.36,-0.617C0.368,-0.596 0.372,-0.573 0.372,-0.548L0.372,-0.508L0.27,-0.508L0.27,-0.542C0.27,-0.562 0.264,-0.579 0.253,-0.594C0.242,-0.609 0.226,-0.616 0.207,-0.616C0.182,-0.616 0.165,-0.608 0.157,-0.593C0.148,-0.577 0.144,-0.557 0.144,-0.533L0.144,-0.169C0.144,-0.148 0.149,-0.131 0.158,-0.117C0.167,-0.103 0.183,-0.096 0.206,-0.096C0.213,-0.096 0.22,-0.097 0.228,-0.1C0.235,-0.102 0.242,-0.106 0.249,-0.111C0.255,-0.116 0.26,-0.124 0.264,-0.133C0.268,-0.142 0.27,-0.154 0.27,-0.168L0.27,-0.203L0.372,-0.203Z" style="fill:white;fill-rule:nonzero;"/>
                </g>
                <g transform="matrix(-31.6469,-88.3589,88.3589,-31.6469,274.595,523.669)">
                    <rect x="0.051" y="-0.712" width="0.102" height="0.712" style="fill:white;fill-rule:nonzero;"/>
                </g>
                <g transform="matrix(-22.4856,-91.122,91.122,-22.4856,267.659,505.676)">
                    <path d="M0.048,-0L0.048,-0.712L0.352,-0.712L0.352,-0.616L0.15,-0.616L0.15,-0.407L0.326,-0.407L0.326,-0.311L0.15,-0.311L0.15,-0.102L0.352,-0.102L0.352,-0L0.048,-0Z" style="fill:white;fill-rule:nonzero;"/>
                </g>
                <g transform="matrix(-12.1433,-93.0664,93.0664,-12.1433,259.388,472.096)">
                    <path d="M0.115,-0L0.115,-0.616L-0.003,-0.616L-0.003,-0.712L0.335,-0.712L0.335,-0.616L0.217,-0.616L0.217,-0L0.115,-0Z" style="fill:white;fill-rule:nonzero;"/>
                </g>
                <g transform="matrix(-0.96729,-93.8503,93.8503,-0.96729,255.203,441.157)">
                    <path d="M0.143,-0L0.143,-0.301L0.003,-0.712L0.111,-0.712L0.193,-0.429L0.195,-0.429L0.277,-0.712L0.385,-0.712L0.245,-0.301L0.245,-0L0.143,-0Z" style="fill:white;fill-rule:nonzero;"/>
                </g>
                <g transform="matrix(17.0294,-92.2974,92.2974,17.0294,256.261,387.233)">
                    <path d="M0.048,-0L0.048,-0.712L0.352,-0.712L0.352,-0.616L0.15,-0.616L0.15,-0.4L0.326,-0.4L0.326,-0.304L0.15,-0.304L0.15,-0L0.048,-0Z" style="fill:white;fill-rule:nonzero;"/>
                </g>
                <g transform="matrix(28.7985,-89.3279,89.3279,28.7985,262.355,352.83)">
                    <path d="M0.042,-0.544C0.042,-0.573 0.047,-0.598 0.057,-0.62C0.067,-0.642 0.08,-0.66 0.097,-0.675C0.113,-0.689 0.131,-0.7 0.152,-0.707C0.172,-0.714 0.192,-0.718 0.213,-0.718C0.234,-0.718 0.254,-0.714 0.275,-0.707C0.295,-0.7 0.313,-0.689 0.33,-0.675C0.346,-0.66 0.359,-0.642 0.369,-0.62C0.379,-0.598 0.384,-0.573 0.384,-0.544L0.384,-0.168C0.384,-0.138 0.379,-0.112 0.369,-0.091C0.359,-0.07 0.346,-0.052 0.33,-0.038C0.313,-0.023 0.295,-0.012 0.275,-0.005C0.254,0.002 0.234,0.006 0.213,0.006C0.192,0.006 0.172,0.002 0.152,-0.005C0.131,-0.012 0.113,-0.023 0.097,-0.038C0.08,-0.052 0.067,-0.07 0.057,-0.091C0.047,-0.112 0.042,-0.138 0.042,-0.168L0.042,-0.544ZM0.144,-0.168C0.144,-0.143 0.151,-0.125 0.165,-0.114C0.178,-0.102 0.194,-0.096 0.213,-0.096C0.232,-0.096 0.248,-0.102 0.262,-0.114C0.275,-0.125 0.282,-0.143 0.282,-0.168L0.282,-0.544C0.282,-0.569 0.275,-0.587 0.262,-0.599C0.248,-0.61 0.232,-0.616 0.213,-0.616C0.194,-0.616 0.178,-0.61 0.165,-0.599C0.151,-0.587 0.144,-0.569 0.144,-0.544L0.144,-0.168Z" style="fill:white;fill-rule:nonzero;"/>
                </g>
                <g transform="matrix(41.7239,-84.071,84.071,41.7239,274.493,314.771)">
                    <path d="M0.15,-0.616L0.15,-0.394L0.208,-0.394C0.226,-0.394 0.24,-0.397 0.251,-0.402C0.262,-0.407 0.27,-0.414 0.276,-0.423C0.281,-0.432 0.285,-0.444 0.287,-0.458C0.289,-0.471 0.29,-0.487 0.29,-0.505C0.29,-0.523 0.289,-0.539 0.287,-0.553C0.285,-0.566 0.281,-0.578 0.275,-0.588C0.262,-0.607 0.238,-0.616 0.203,-0.616L0.15,-0.616ZM0.048,-0L0.048,-0.712L0.212,-0.712C0.332,-0.712 0.392,-0.642 0.392,-0.503C0.392,-0.461 0.386,-0.425 0.373,-0.396C0.36,-0.367 0.337,-0.343 0.304,-0.325L0.414,-0L0.306,-0L0.211,-0.304L0.15,-0.304L0.15,-0L0.048,-0Z" style="fill:white;fill-rule:nonzero;"/>
                </g>
                <g transform="matrix(54.6897,-76.2749,76.2749,54.6897,301.908,264.298)">
                    <rect x="0.051" y="-0.712" width="0.102" height="0.712" style="fill:white;fill-rule:nonzero;"/>
                </g>
                <g transform="matrix(62.5581,-69.9664,69.9664,62.5581,312.595,248.358)">
                    <path d="M0.044,-0L0.044,-0.712L0.142,-0.712L0.296,-0.283L0.298,-0.283L0.298,-0.712L0.4,-0.712L0.4,-0L0.304,-0L0.148,-0.428L0.146,-0.428L0.146,-0L0.044,-0Z" style="fill:white;fill-rule:nonzero;"/>
                </g>
                <g transform="matrix(71.0282,-61.3499,61.3499,71.0282,340.677,217.466)">
                    <path d="M0.115,-0L0.115,-0.616L-0.003,-0.616L-0.003,-0.712L0.335,-0.712L0.335,-0.616L0.217,-0.616L0.217,-0L0.115,-0Z" style="fill:white;fill-rule:nonzero;"/>
                </g>
                <g transform="matrix(77.9587,-52.2615,52.2615,77.9587,364.221,196.88)">
                    <path d="M0.048,-0L0.048,-0.712L0.352,-0.712L0.352,-0.616L0.15,-0.616L0.15,-0.407L0.326,-0.407L0.326,-0.311L0.15,-0.311L0.15,-0.102L0.352,-0.102L0.352,-0L0.048,-0Z" style="fill:white;fill-rule:nonzero;"/>
                </g>
                <g transform="matrix(84.2291,-41.4039,41.4039,84.2291,392.848,177.224)">
                    <path d="M0.15,-0.616L0.15,-0.394L0.208,-0.394C0.226,-0.394 0.24,-0.397 0.251,-0.402C0.262,-0.407 0.27,-0.414 0.276,-0.423C0.281,-0.432 0.285,-0.444 0.287,-0.458C0.289,-0.471 0.29,-0.487 0.29,-0.505C0.29,-0.523 0.289,-0.539 0.287,-0.553C0.285,-0.566 0.281,-0.578 0.275,-0.588C0.262,-0.607 0.238,-0.616 0.203,-0.616L0.15,-0.616ZM0.048,-0L0.048,-0.712L0.212,-0.712C0.332,-0.712 0.392,-0.642 0.392,-0.503C0.392,-0.461 0.386,-0.425 0.373,-0.396C0.36,-0.367 0.337,-0.343 0.304,-0.325L0.414,-0L0.306,-0L0.211,-0.304L0.15,-0.304L0.15,-0L0.048,-0Z" style="fill:white;fill-rule:nonzero;"/>
                </g>
                <g transform="matrix(89.1932,-29.2129,29.2129,89.1932,428.772,159.375)">
                    <path d="M0.044,-0L0.044,-0.712L0.142,-0.712L0.296,-0.283L0.298,-0.283L0.298,-0.712L0.4,-0.712L0.4,-0L0.304,-0L0.148,-0.428L0.146,-0.428L0.146,-0L0.044,-0Z" style="fill:white;fill-rule:nonzero;"/>
                </g>
                <g transform="matrix(92.4283,-16.3042,16.3042,92.4283,468.448,146.538)">
                    <path d="M0.048,-0L0.048,-0.712L0.352,-0.712L0.352,-0.616L0.15,-0.616L0.15,-0.407L0.326,-0.407L0.326,-0.311L0.15,-0.311L0.15,-0.102L0.352,-0.102L0.352,-0L0.048,-0Z" style="fill:white;fill-rule:nonzero;"/>
                </g>
                <g transform="matrix(93.6715,-5.87081,5.87081,93.6715,502.639,140.531)">
                    <path d="M0.115,-0L0.115,-0.616L-0.003,-0.616L-0.003,-0.712L0.335,-0.712L0.335,-0.616L0.217,-0.616L0.217,-0L0.115,-0Z" style="fill:white;fill-rule:nonzero;"/>
                </g>
                <g transform="matrix(93.132,11.6294,-11.6294,93.132,551.272,138.699)">
                    <path d="M0.048,-0L0.048,-0.712L0.197,-0.712C0.23,-0.712 0.258,-0.707 0.281,-0.697C0.304,-0.687 0.322,-0.674 0.337,-0.657C0.352,-0.64 0.362,-0.621 0.369,-0.6C0.375,-0.578 0.378,-0.555 0.378,-0.532L0.378,-0.506C0.378,-0.487 0.377,-0.47 0.374,-0.457C0.371,-0.444 0.366,-0.432 0.36,-0.422C0.349,-0.403 0.331,-0.387 0.308,-0.374C0.332,-0.363 0.35,-0.346 0.361,-0.324C0.372,-0.302 0.378,-0.272 0.378,-0.234L0.378,-0.194C0.378,-0.131 0.363,-0.083 0.333,-0.05C0.302,-0.017 0.254,-0 0.187,-0L0.048,-0ZM0.15,-0.33L0.15,-0.102L0.194,-0.102C0.215,-0.102 0.231,-0.105 0.243,-0.111C0.254,-0.117 0.263,-0.125 0.269,-0.136C0.275,-0.147 0.279,-0.159 0.28,-0.174C0.281,-0.189 0.282,-0.205 0.282,-0.222C0.282,-0.24 0.281,-0.256 0.279,-0.269C0.277,-0.282 0.273,-0.294 0.267,-0.303C0.26,-0.312 0.251,-0.319 0.24,-0.324C0.229,-0.328 0.214,-0.33 0.195,-0.33L0.15,-0.33ZM0.15,-0.616L0.15,-0.42L0.196,-0.42C0.23,-0.42 0.253,-0.428 0.265,-0.446C0.276,-0.463 0.282,-0.487 0.282,-0.52C0.282,-0.552 0.276,-0.576 0.263,-0.592C0.249,-0.608 0.226,-0.616 0.192,-0.616L0.15,-0.616Z" style="fill:white;fill-rule:nonzero;"/>
                </g>
                <g transform="matrix(90.6287,24.3977,-24.3977,90.6287,591.005,143.747)">
                    <path d="M0.048,-0L0.048,-0.712L0.15,-0.712L0.15,-0.102L0.352,-0.102L0.352,-0L0.048,-0Z" style="fill:white;fill-rule:nonzero;"/>
                </g>
                <g transform="matrix(86.8465,35.5879,-35.5879,86.8465,624.698,152.621)">
                    <path d="M0.254,-0.249L0.204,-0.507L0.202,-0.507L0.152,-0.249L0.254,-0.249ZM0.002,-0L0.161,-0.712L0.246,-0.712L0.405,-0L0.303,-0L0.273,-0.153L0.134,-0.153L0.104,-0L0.002,-0Z" style="fill:white;fill-rule:nonzero;"/>
                </g>
                <g transform="matrix(81.2116,47.0477,-47.0477,81.2116,660.072,167.125)">
                    <path d="M0.378,-0.507L0.276,-0.507L0.276,-0.53C0.276,-0.553 0.271,-0.574 0.26,-0.591C0.249,-0.608 0.23,-0.616 0.204,-0.616C0.19,-0.616 0.179,-0.613 0.17,-0.608C0.161,-0.603 0.154,-0.596 0.149,-0.588C0.144,-0.579 0.14,-0.57 0.138,-0.559C0.136,-0.548 0.135,-0.536 0.135,-0.524C0.135,-0.51 0.136,-0.498 0.137,-0.489C0.138,-0.48 0.14,-0.471 0.144,-0.464C0.148,-0.457 0.154,-0.45 0.162,-0.445C0.169,-0.44 0.18,-0.434 0.193,-0.429L0.271,-0.398C0.294,-0.389 0.312,-0.379 0.326,-0.368C0.34,-0.356 0.351,-0.342 0.359,-0.327C0.366,-0.311 0.371,-0.293 0.374,-0.273C0.377,-0.252 0.378,-0.229 0.378,-0.203C0.378,-0.173 0.375,-0.145 0.369,-0.12C0.363,-0.094 0.353,-0.072 0.34,-0.054C0.326,-0.035 0.308,-0.021 0.285,-0.01C0.262,0.001 0.235,0.006 0.202,0.006C0.177,0.006 0.154,0.002 0.133,-0.007C0.112,-0.016 0.093,-0.028 0.078,-0.043C0.063,-0.058 0.05,-0.076 0.042,-0.097C0.033,-0.117 0.028,-0.139 0.028,-0.163L0.028,-0.201L0.13,-0.201L0.13,-0.169C0.13,-0.15 0.135,-0.134 0.147,-0.119C0.158,-0.103 0.176,-0.096 0.202,-0.096C0.219,-0.096 0.233,-0.098 0.243,-0.104C0.252,-0.109 0.26,-0.116 0.265,-0.125C0.27,-0.134 0.274,-0.146 0.275,-0.159C0.276,-0.171 0.276,-0.186 0.276,-0.202C0.276,-0.221 0.275,-0.236 0.274,-0.248C0.273,-0.26 0.27,-0.27 0.266,-0.277C0.261,-0.284 0.255,-0.29 0.248,-0.295C0.24,-0.3 0.23,-0.305 0.217,-0.31L0.144,-0.34C0.1,-0.358 0.07,-0.382 0.056,-0.412C0.041,-0.441 0.033,-0.478 0.033,-0.523C0.033,-0.55 0.037,-0.575 0.044,-0.599C0.051,-0.623 0.062,-0.644 0.077,-0.661C0.091,-0.678 0.109,-0.692 0.131,-0.703C0.152,-0.713 0.178,-0.718 0.208,-0.718C0.233,-0.718 0.257,-0.713 0.278,-0.704C0.299,-0.695 0.317,-0.682 0.332,-0.667C0.363,-0.635 0.378,-0.598 0.378,-0.557L0.378,-0.507Z" style="fill:white;fill-rule:nonzero;"/>
                </g>
                <g transform="matrix(74.1769,57.5031,-57.5031,74.1769,693.109,186.296)">
                    <path d="M0.048,-0L0.048,-0.712L0.352,-0.712L0.352,-0.616L0.15,-0.616L0.15,-0.407L0.326,-0.407L0.326,-0.311L0.15,-0.311L0.15,-0.102L0.352,-0.102L0.352,-0L0.048,-0Z" style="fill:white;fill-rule:nonzero;"/>
                </g>
                <g transform="matrix(66.3163,66.4151,-66.4151,66.3163,720.682,207.345)">
                    <path d="M0.048,-0L0.048,-0.712L0.197,-0.712C0.23,-0.712 0.258,-0.707 0.281,-0.697C0.304,-0.687 0.322,-0.674 0.337,-0.657C0.352,-0.64 0.362,-0.621 0.369,-0.6C0.375,-0.578 0.378,-0.555 0.378,-0.532L0.378,-0.506C0.378,-0.487 0.377,-0.47 0.374,-0.457C0.371,-0.444 0.366,-0.432 0.36,-0.422C0.349,-0.403 0.331,-0.387 0.308,-0.374C0.332,-0.363 0.35,-0.346 0.361,-0.324C0.372,-0.302 0.378,-0.272 0.378,-0.234L0.378,-0.194C0.378,-0.131 0.363,-0.083 0.333,-0.05C0.302,-0.017 0.254,-0 0.187,-0L0.048,-0ZM0.15,-0.33L0.15,-0.102L0.194,-0.102C0.215,-0.102 0.231,-0.105 0.243,-0.111C0.254,-0.117 0.263,-0.125 0.269,-0.136C0.275,-0.147 0.279,-0.159 0.28,-0.174C0.281,-0.189 0.282,-0.205 0.282,-0.222C0.282,-0.24 0.281,-0.256 0.279,-0.269C0.277,-0.282 0.273,-0.294 0.267,-0.303C0.26,-0.312 0.251,-0.319 0.24,-0.324C0.229,-0.328 0.214,-0.33 0.195,-0.33L0.15,-0.33ZM0.15,-0.616L0.15,-0.42L0.196,-0.42C0.23,-0.42 0.253,-0.428 0.265,-0.446C0.276,-0.463 0.282,-0.487 0.282,-0.52C0.282,-0.552 0.276,-0.576 0.263,-0.592C0.249,-0.608 0.226,-0.616 0.192,-0.616L0.15,-0.616Z" style="fill:white;fill-rule:nonzero;"/>
                </g>
                <g transform="matrix(56.8356,74.6896,-74.6896,56.8356,748.18,234.865)">
                    <path d="M0.254,-0.249L0.204,-0.507L0.202,-0.507L0.152,-0.249L0.254,-0.249ZM0.002,-0L0.161,-0.712L0.246,-0.712L0.405,-0L0.303,-0L0.273,-0.153L0.134,-0.153L0.104,-0L0.002,-0Z" style="fill:white;fill-rule:nonzero;"/>
                </g>
                <g transform="matrix(46.3096,81.6348,-81.6348,46.3096,771.328,265.323)">
                    <path d="M0.048,-0L0.048,-0.712L0.15,-0.712L0.15,-0.102L0.352,-0.102L0.352,-0L0.048,-0Z" style="fill:white;fill-rule:nonzero;"/>
                </g>
                <g transform="matrix(35.854,86.737,-86.737,35.854,788.64,295.49)">
                    <path d="M0.048,-0L0.048,-0.712L0.15,-0.712L0.15,-0.102L0.352,-0.102L0.352,-0L0.048,-0Z" style="fill:white;fill-rule:nonzero;"/>
                </g>
                <g transform="matrix(18.1143,92.0907,-92.0907,18.1143,807.533,344.271)">
                    <path d="M0.15,-0.616L0.15,-0.394L0.208,-0.394C0.226,-0.394 0.24,-0.397 0.251,-0.402C0.262,-0.407 0.27,-0.414 0.276,-0.423C0.281,-0.432 0.285,-0.444 0.287,-0.458C0.289,-0.471 0.29,-0.487 0.29,-0.505C0.29,-0.523 0.289,-0.539 0.287,-0.553C0.285,-0.566 0.281,-0.578 0.275,-0.588C0.262,-0.607 0.238,-0.616 0.203,-0.616L0.15,-0.616ZM0.048,-0L0.048,-0.712L0.212,-0.712C0.332,-0.712 0.392,-0.642 0.392,-0.503C0.392,-0.461 0.386,-0.425 0.373,-0.396C0.36,-0.367 0.337,-0.343 0.304,-0.325L0.414,-0L0.306,-0L0.211,-0.304L0.15,-0.304L0.15,-0L0.048,-0Z" style="fill:white;fill-rule:nonzero;"/>
                </g>
                <g transform="matrix(5.83374,93.6738,-93.6738,5.83374,815.284,383.566)">
                    <path d="M0.048,-0L0.048,-0.712L0.352,-0.712L0.352,-0.616L0.15,-0.616L0.15,-0.407L0.326,-0.407L0.326,-0.311L0.15,-0.311L0.15,-0.102L0.352,-0.102L0.352,-0L0.048,-0Z" style="fill:white;fill-rule:nonzero;"/>
                </g>
                <g transform="matrix(-5.72252,93.6807,-93.6807,-5.72252,817.633,418.347)">
                    <path d="M0.378,-0.507L0.276,-0.507L0.276,-0.53C0.276,-0.553 0.271,-0.574 0.26,-0.591C0.249,-0.608 0.23,-0.616 0.204,-0.616C0.19,-0.616 0.179,-0.613 0.17,-0.608C0.161,-0.603 0.154,-0.596 0.149,-0.588C0.144,-0.579 0.14,-0.57 0.138,-0.559C0.136,-0.548 0.135,-0.536 0.135,-0.524C0.135,-0.51 0.136,-0.498 0.137,-0.489C0.138,-0.48 0.14,-0.471 0.144,-0.464C0.148,-0.457 0.154,-0.45 0.162,-0.445C0.169,-0.44 0.18,-0.434 0.193,-0.429L0.271,-0.398C0.294,-0.389 0.312,-0.379 0.326,-0.368C0.34,-0.356 0.351,-0.342 0.359,-0.327C0.366,-0.311 0.371,-0.293 0.374,-0.273C0.377,-0.252 0.378,-0.229 0.378,-0.203C0.378,-0.173 0.375,-0.145 0.369,-0.12C0.363,-0.094 0.353,-0.072 0.34,-0.054C0.326,-0.035 0.308,-0.021 0.285,-0.01C0.262,0.001 0.235,0.006 0.202,0.006C0.177,0.006 0.154,0.002 0.133,-0.007C0.112,-0.016 0.093,-0.028 0.078,-0.043C0.063,-0.058 0.05,-0.076 0.042,-0.097C0.033,-0.117 0.028,-0.139 0.028,-0.163L0.028,-0.201L0.13,-0.201L0.13,-0.169C0.13,-0.15 0.135,-0.134 0.147,-0.119C0.158,-0.103 0.176,-0.096 0.202,-0.096C0.219,-0.096 0.233,-0.098 0.243,-0.104C0.252,-0.109 0.26,-0.116 0.265,-0.125C0.27,-0.134 0.274,-0.146 0.275,-0.159C0.276,-0.171 0.276,-0.186 0.276,-0.202C0.276,-0.221 0.275,-0.236 0.274,-0.248C0.273,-0.26 0.27,-0.27 0.266,-0.277C0.261,-0.284 0.255,-0.29 0.248,-0.295C0.24,-0.3 0.23,-0.305 0.217,-0.31L0.144,-0.34C0.1,-0.358 0.07,-0.382 0.056,-0.412C0.041,-0.441 0.033,-0.478 0.033,-0.523C0.033,-0.55 0.037,-0.575 0.044,-0.599C0.051,-0.623 0.062,-0.644 0.077,-0.661C0.091,-0.678 0.109,-0.692 0.131,-0.703C0.152,-0.713 0.178,-0.718 0.208,-0.718C0.233,-0.718 0.257,-0.713 0.278,-0.704C0.299,-0.695 0.317,-0.682 0.332,-0.667C0.363,-0.635 0.378,-0.598 0.378,-0.557L0.378,-0.507Z" style="fill:white;fill-rule:nonzero;"/>
                </g>
                <g transform="matrix(-18.2225,92.0693,-92.0693,-18.2225,815.299,456.364)">
                    <path d="M0.048,-0L0.048,-0.712L0.352,-0.712L0.352,-0.616L0.15,-0.616L0.15,-0.407L0.326,-0.407L0.326,-0.311L0.15,-0.311L0.15,-0.102L0.352,-0.102L0.352,-0L0.048,-0Z" style="fill:white;fill-rule:nonzero;"/>
                </g>
                <g transform="matrix(-29.6264,89.0567,-89.0567,-29.6264,808.734,490.532)">
                    <path d="M0.254,-0.249L0.204,-0.507L0.202,-0.507L0.152,-0.249L0.254,-0.249ZM0.002,-0L0.161,-0.712L0.246,-0.712L0.405,-0L0.303,-0L0.273,-0.153L0.134,-0.153L0.104,-0L0.002,-0Z" style="fill:white;fill-rule:nonzero;"/>
                </g>
                <g transform="matrix(-42.2662,83.7997,-83.7997,-42.2662,796.823,526.91)">
                    <path d="M0.15,-0.616L0.15,-0.394L0.208,-0.394C0.226,-0.394 0.24,-0.397 0.251,-0.402C0.262,-0.407 0.27,-0.414 0.276,-0.423C0.281,-0.432 0.285,-0.444 0.287,-0.458C0.289,-0.471 0.29,-0.487 0.29,-0.505C0.29,-0.523 0.289,-0.539 0.287,-0.553C0.285,-0.566 0.281,-0.578 0.275,-0.588C0.262,-0.607 0.238,-0.616 0.203,-0.616L0.15,-0.616ZM0.048,-0L0.048,-0.712L0.212,-0.712C0.332,-0.712 0.392,-0.642 0.392,-0.503C0.392,-0.461 0.386,-0.425 0.373,-0.396C0.36,-0.367 0.337,-0.343 0.304,-0.325L0.414,-0L0.306,-0L0.211,-0.304L0.15,-0.304L0.15,-0L0.048,-0Z" style="fill:white;fill-rule:nonzero;"/>
                </g>
                <g transform="matrix(-53.0774,77.4055,-77.4055,-53.0774,778.898,562.614)">
                    <path d="M0.372,-0.203L0.372,-0.159C0.372,-0.137 0.368,-0.116 0.36,-0.097C0.351,-0.077 0.34,-0.059 0.325,-0.044C0.31,-0.029 0.293,-0.017 0.274,-0.008C0.254,0.002 0.233,0.006 0.21,0.006C0.191,0.006 0.171,0.003 0.151,-0.002C0.131,-0.007 0.113,-0.017 0.097,-0.03C0.081,-0.043 0.068,-0.061 0.058,-0.082C0.047,-0.102 0.042,-0.129 0.042,-0.162L0.042,-0.554C0.042,-0.577 0.046,-0.599 0.054,-0.619C0.062,-0.639 0.073,-0.656 0.088,-0.671C0.103,-0.686 0.12,-0.697 0.141,-0.706C0.161,-0.714 0.183,-0.718 0.208,-0.718C0.256,-0.718 0.295,-0.702 0.325,-0.671C0.34,-0.656 0.351,-0.638 0.36,-0.617C0.368,-0.596 0.372,-0.573 0.372,-0.548L0.372,-0.508L0.27,-0.508L0.27,-0.542C0.27,-0.562 0.264,-0.579 0.253,-0.594C0.242,-0.609 0.226,-0.616 0.207,-0.616C0.182,-0.616 0.165,-0.608 0.157,-0.593C0.148,-0.577 0.144,-0.557 0.144,-0.533L0.144,-0.169C0.144,-0.148 0.149,-0.131 0.158,-0.117C0.167,-0.103 0.183,-0.096 0.206,-0.096C0.213,-0.096 0.22,-0.097 0.228,-0.1C0.235,-0.102 0.242,-0.106 0.249,-0.111C0.255,-0.116 0.26,-0.124 0.264,-0.133C0.268,-0.142 0.27,-0.154 0.27,-0.168L0.27,-0.203L0.372,-0.203Z" style="fill:white;fill-rule:nonzero;"/>
                </g>
                <g transform="matrix(-63.181,69.4045,-69.4045,-63.181,757.281,594.27)">
                    <path d="M0.048,-0L0.048,-0.712L0.15,-0.712L0.15,-0.407L0.276,-0.407L0.276,-0.712L0.378,-0.712L0.378,-0L0.276,-0L0.276,-0.317L0.15,-0.317L0.15,-0L0.048,-0Z" style="fill:white;fill-rule:nonzero;"/>
                </g>
            </g>
            <g id="base">
                <g id="combined" transform="matrix(1,0,0,1,156.5,-72.8647)">
                    <path d="M249.5,747.727L249.5,739.24C249.5,718.249 263.476,700.497 282.625,694.788L282.625,676.109L282.625,668.452C282.625,645.637 360.984,627.115 457.5,627.115C554.016,627.115 632.375,645.637 632.375,668.452L632.375,694.788C651.524,700.497 665.5,718.249 665.5,739.24L665.5,747.727C606.939,789.911 535.099,814.765 457.5,814.765C379.901,814.765 308.061,789.911 249.5,747.727Z" style="fill:rgb(154,125,127);"/>
                </g>
                <g id="definition" transform="matrix(1.01508,0,0,1.16299,149.599,-185.902)">
                    <path d="M615.3,708.304C613.684,709.453 611.925,710.602 610.034,711.748C604.655,715.008 598.247,718.218 590.944,721.282C566.047,730.803 525.013,738.706 457.5,738.706C389.987,738.706 348.953,730.803 324.056,721.282C316.753,718.218 310.345,715.008 304.966,711.748C303.075,710.602 301.316,709.453 299.7,708.304C288.614,699.736 287.53,692.685 287.53,692.685L278.596,693.398C279.952,694.492 282.383,697.114 282.608,697.358C282.368,697.335 279.679,697.044 278.389,695.27C278.038,694.756 277.807,694.173 277.73,693.55L277.722,693.489L277.721,693.468L278.596,693.398C278.066,692.966 277.7,692.771 277.699,693.048L277.71,693.352L277.721,693.468L277.72,693.468L277.712,693.405L277.71,693.352C277.703,693.261 277.699,693.169 277.699,693.076C277.699,699.476 282.683,706.882 292.322,714.094C295.44,716.573 299.221,719.127 303.807,721.67C308.402,724.217 313.862,726.774 320.353,729.232C353.022,742.782 402.335,753.588 457.5,753.588C512.665,753.588 561.978,742.782 594.647,729.232C601.138,726.774 606.598,724.217 611.193,721.67C615.779,719.127 619.56,716.573 622.678,714.094C632.317,706.882 637.301,699.476 637.301,693.076C637.301,690.778 635.23,688.887 632.6,688.782C629.97,688.677 627.71,690.396 627.47,692.685C627.47,692.685 626.386,699.736 615.3,708.304ZM277.725,693.514L277.725,693.517L277.725,693.514Z" style="fill:rgb(17,36,65);"/>
                </g>
                <g id="combined1" serif:id="combined" transform="matrix(1,0,0,1,156.5,-72.8647)">
                    <path d="M249.5,747.727L249.5,739.24C249.5,718.249 263.476,700.497 282.625,694.788L282.625,676.109L282.625,668.452C282.625,645.637 360.984,627.115 457.5,627.115C554.016,627.115 632.375,645.637 632.375,668.452L632.375,694.788C651.524,700.497 665.5,718.249 665.5,739.24L665.5,747.727C606.939,789.911 535.099,814.765 457.5,814.765C379.901,814.765 308.061,789.911 249.5,747.727Z" style="fill:none;stroke:rgb(154,125,127);stroke-width:20px;"/>
                </g>
            </g>
            <g id="ball" transform="matrix(0.82808,0.452528,-0.452528,0.82808,281.512,-159.963)">
                <circle cx="586.5" cy="338.5" r="248.5" style="fill:white;"/>
            </g>
            <g transform="matrix(0.677975,0,0,0.677975,303.841,129.082)">
                <path d="M314.632,644.621C346.319,634.032 398.519,627.115 457.5,627.115C516.462,627.115 568.647,634.027 600.324,644.606C514.895,710.282 397.273,708.169 314.632,644.621Z" style="fill:rgb(154,125,127);"/>
            </g>
            <g>
                <g transform="matrix(0.877517,0.479545,-0.479545,0.877517,255.833,-189.175)">
                    <path d="M420.502,494.735C465.387,454.192 524.833,429.5 590,429.5C655.167,429.5 714.613,454.192 759.498,494.735" style="fill:none;stroke:rgb(209,29,67);stroke-width:30px;stroke-linecap:butt;stroke-dasharray:30,39,0,0;"/>
                </g>
                <g transform="matrix(0.877517,0.479545,-0.479545,0.877517,255.833,-189.175)">
                    <path d="M759.498,170.765C714.613,211.308 655.167,236 590,236C524.833,236 465.387,211.308 420.502,170.765" style="fill:none;stroke:rgb(209,29,67);stroke-width:30px;stroke-linecap:butt;stroke-dasharray:30,39,0,0;"/>
                </g>
            </g>
            <g id="extra-outlines" serif:id="extra outlines">
                <g transform="matrix(1.30605,0,0,1.30605,-86.0427,-163.041)">
                    <circle cx="536" cy="420" r="281" style="fill:none;stroke:rgb(17,36,65);stroke-width:15.31px;"/>
                </g>
                <g transform="matrix(0.942487,-0.0470667,0.0470667,0.942487,45.299,94.3226)">
                    <circle cx="586.5" cy="338.5" r="248.5" style="fill:none;stroke:rgb(17,36,65);stroke-width:21.19px;"/>
                </g>
            </g>
            <g transform="matrix(2.12232,0,0,2.12232,-538.377,-333.686)">
                <g transform="matrix(0.518709,0.40253,-0.40253,0.518709,227.42,-143.082)">
                    <path d="M718.636,194.086L732.399,231.28L769.594,245.043L732.399,258.806L718.636,296L704.873,258.806L667.679,245.043L704.873,231.28L718.636,194.086Z" style="fill:rgb(17,36,65);stroke:white;stroke-width:7.18px;stroke-linecap:butt;"/>
                </g>
                <g transform="matrix(0.222764,0.40724,-0.40724,0.222764,382.716,-22.0588)">
                    <path d="M718.636,194.086L732.399,231.28L769.594,245.043L732.399,258.806L718.636,296L704.873,258.806L667.679,245.043L704.873,231.28L718.636,194.086Z" style="fill:rgb(17,36,65);stroke:white;stroke-width:10.15px;stroke-linecap:butt;"/>
                </g>
                <g transform="matrix(-0.277124,0.372385,-0.372385,-0.277124,790.413,135.483)">
                    <path d="M718.636,194.086L730.216,231.948C730.325,232.305 730.521,232.63 730.785,232.894C731.049,233.158 731.374,233.354 731.732,233.463L769.594,245.043L731.732,256.623C731.374,256.732 731.049,256.927 730.785,257.192C730.521,257.456 730.325,257.781 730.216,258.138L718.636,296L707.057,258.138C706.947,257.781 706.752,257.456 706.488,257.192C706.223,256.927 705.898,256.732 705.541,256.623L667.679,245.043L705.541,233.463C705.898,233.354 706.223,233.158 706.488,232.894C706.752,232.63 706.947,232.305 707.057,231.948L718.636,194.086Z" style="fill:rgb(17,36,65);stroke:white;stroke-width:10.15px;stroke-linecap:butt;"/>
                </g>
            </g>
        </g>
    </g>
</svg>
