<svg fill="none" height="116" viewBox="0 0 115 116" width="115" xmlns="http://www.w3.org/2000/svg"><g clip-rule="evenodd" fill="#000" fill-rule="evenodd"><path d="m89.2222 91.9938c-8.8548 6.595-19.8328 10.4982-31.7224 10.4982-12.0453 0-23.1549-4.006-32.0691-10.7585l4.3582-11.9742c7.313 6.6639 17.0374 10.727 27.7109 10.727 10.5125 0 20.1044-3.9415 27.3785-10.4275z"/><path d="m39.5046 14.6586.963 2.1167 7.1314.5568-6.5108 2.9623-.5569 7.1314-2.9623-6.5109-7.1313-.5568 6.5108-2.9623.5568-7.1314zm-13.2403 15.9527 2.4393-.6781 3.5909-.9982-4.4669 4.3842 1.6763 6.0303-4.3841-4.467-6.0303 1.6764 4.4669-4.3842-1.6764-6.0303 2.4732 2.5199zm14.9287-14.8718-.7144-1.5702c5.1446-2.4949 10.9192-3.894 17.0207-3.894 21.5701 0 39.0561 17.4861 39.0561 39.0562s-17.486 39.0562-39.0561 39.0562-39.0562-17.4861-39.0562-39.0562c0-4.1803.6568-8.2071 1.8727-11.9831l4.4767-1.2444.4242.4322c-1.3174 3.321-2.1371 6.8935-2.3673 10.6256 1.0213.0018 2.0332.0452 3.0343.1285l-.3602 4.3247c-.8814-.0734-1.7732-.1118-2.674-.1136 1.0758 17.4451 15.0351 31.4043 32.4802 32.4799-.0018-.9007-.0401-1.7923-.1135-2.6736l4.3246-.3602c.0834 1.0009.1268 2.0127.1286 3.0338 17.445-1.0759 31.404-15.0351 32.4797-32.4802-1.0211-.0018-2.0329-.0452-3.0337-.1285l.3602-4.3247c.8812.0734 1.7728.1118 2.6735.1136-1.0759-17.4449-15.0349-31.4039-32.4798-32.4798.0018.9006.0401 1.7923.1135 2.6735l-4.3246.3602c-.0834-1.0009-.1267-2.0127-.1285-3.0338-2.8512.1759-5.6092.6958-8.233 1.5188zm-11.0227 5.6902 6.0461.472c-2.4536 1.9066-4.6447 4.1351-6.5097 6.6222l-3.1152.866-1.6332-1.664c1.5158-2.2783 3.2645-4.3884 5.212-6.2962zm5.5868 5.1519 3.4098 4.1417 5.2744-.9809-4.1417 3.4099.9809 5.2743-3.4099-4.1417-5.2743.9809 4.1417-3.4099zm21.3056-.7623c.6334 1.9889 1.4308 3.9045 2.3762 5.7306l3.8538-1.995c-.8337-1.6106-1.5367-3.2994-2.095-5.0525zm6.9706 12.5946c1.3361 1.5807 2.8028 3.0474 4.3835 4.3835l2.8015-3.3142c-1.3958-1.1798-2.6909-2.475-3.8707-3.8707zm11.2475 8.978c1.8262.9453 3.7417 1.7427 5.7307 2.3762l1.3169-4.135c-1.7531-.5583-3.442-1.2613-5.0526-2.0951zm-17.3445 25.4518c-.6334-1.989-1.4308-3.9046-2.3761-5.7307l-3.8539 1.995c.8338 1.6106 1.5367 3.2994 2.095 5.0525zm-6.9706-12.5947c-1.3361-1.5807-2.8028-3.0474-4.3835-4.3835l-2.8014 3.3143c1.3957 1.1797 2.6909 2.4749 3.8706 3.8706zm-11.2475-8.978c-1.8262-.9453-3.7417-1.7427-5.7307-2.3762l-1.3168 4.135c1.753.5584 3.4419 1.2613 5.0525 2.0951z"/><path d="m53.3972 77.2457c17.7445 0 32.1293-14.3848 32.1293-32.1294 0-4.6946-1.0068-9.154-2.8164-13.1742 3.49 4.9593 5.5392 11.0056 5.5392 17.5305 0 16.8423-13.6533 30.4957-30.4956 30.4957-6.5246 0-12.5705-2.049-17.5296-5.5386 4.0198 1.8093 8.4789 2.816 13.1731 2.816z"/></g></svg>