<svg xmlns="http://www.w3.org/2000/svg" height="753.996" width="753.996" clip-rule="evenodd" fill-rule="evenodd" stroke-linecap="round" stroke-linejoin="round" stroke-miterlimit="1.5"><circle cx="536" cy="420" r="281" fill="#112441" stroke="#040709" stroke-width="15.31" transform="translate(-323.045 -171.543) scale(1.30605)"/><circle cx="586.5" cy="338.5" r="248.5" fill="#fff" transform="rotate(28.655 352.043 2.901) scale(.94366)"/><path d="M130.536 573.868l6.083 6.875-1.55 1.372c-1.55 1.372-2.668 2.961-3.158 4.716-.49 1.756.104 3.514 1.655 5.266.835.944 1.693 1.506 2.567 1.815a5.198 5.198 0 002.6.222c.905-.2 1.75-.466 2.61-.988.862-.52 1.73-1.17 2.539-1.885a28.425 28.425 0 002.24-2.222c.547-.604 1.034-1.276 1.267-1.963a4.868 4.868 0 00.208-2.346c-.08-.77-.332-1.87-.77-3.044l-2.563-7.106c-.765-2.087-1.164-3.897-1.258-5.496-.026-1.66.262-3.236.796-4.67.66-1.426 1.576-2.836 2.745-4.231 1.237-1.455 2.727-2.894 4.48-4.445 2.022-1.789 4.088-3.256 6.131-4.343 2.11-1.146 4.19-1.784 6.178-1.981 2.116-.19 4.133.189 6.246 1.083 2.113.894 4.06 2.416 6.029 4.64 1.49 1.685 2.593 3.474 3.238 5.426.646 1.953.97 3.949.854 5.855-.117 1.905-.555 3.855-1.493 5.647a14.33 14.33 0 01-3.614 4.88l-2.561 2.266-6.083-6.876 2.157-1.908c1.28-1.133 2.06-2.424 2.356-4.128.423-1.695-.18-3.326-1.73-5.079-1.014-1.146-1.983-1.97-2.984-2.286-.874-.309-1.823-.43-2.728-.23-.904.199-1.952.645-2.888 1.353-.868.648-1.88 1.543-2.958 2.497a48.203 48.203 0 00-2.981 2.878c-.75.783-1.244 1.582-1.478 2.269a6.92 6.92 0 00-.14 2.287c.14.837.4 1.81.838 2.984l2.332 6.71c1.41 4.039 1.582 7.492.395 10.225-1.06 2.74-3.077 5.486-6.11 8.17a24.16 24.16 0 01-5.78 3.79c-2.035.96-4.106 1.471-6.146 1.474-1.981.07-3.998-.308-6.052-1.135-1.926-.82-3.814-2.273-5.603-4.296-1.491-1.685-2.585-3.6-3.231-5.553-.646-1.952-.843-3.94-.726-5.846.308-3.998 1.907-7.216 4.67-9.66zM120.066 565.663c-2.174 1.444-4.297 2.313-6.445 2.658-2.147.346-4.144.267-6.115-.261-1.846-.503-3.567-1.305-5.137-2.531-1.52-1.151-2.816-2.452-3.861-4.027-1.046-1.574-1.741-3.273-2.262-5.196-.47-1.848-.542-3.745-.338-5.717.328-1.946 1.03-3.817 2.183-5.662 1.151-1.845 2.777-3.464 4.951-4.908l28.193-18.716c2.25-1.493 4.448-2.413 6.52-2.708 2.073-.296 4.07-.217 5.916.286 1.971.528 3.692 1.33 5.212 2.481 1.57 1.226 2.866 2.527 3.911 4.102 1.046 1.574 1.741 3.273 2.212 5.121.52 1.923.591 3.82.263 5.767-.203 1.971-.906 3.842-1.983 5.637-1.077 1.795-2.777 3.464-5.027 4.958zm23.116-26.364c1.875-1.245 2.876-2.666 3.004-4.263.252-1.572-.094-3.07-1.04-4.495-.946-1.425-2.192-2.326-3.789-2.778-1.472-.427-3.17-.056-5.044 1.188l-28.193 18.716c-1.875 1.245-2.876 2.666-3.129 4.238-.128 1.597.219 3.096 1.165 4.52.946 1.425 2.192 2.326 3.664 2.753 1.596.452 3.295.081 5.17-1.163zM110.801 487.33l3.574-1.707c1.787-.853 3.647-1.342 5.5-1.43 1.974-.044 3.863.151 5.663.788a16.34 16.34 0 014.901 2.746c1.588 1.236 2.727 2.787 3.619 4.655.737 1.543 1.269 3.284 1.638 5.102.37 1.818.255 3.668-.18 5.471-.435 1.804-1.393 3.558-2.71 5.184-1.199 1.67-3.198 3.122-5.878 4.402l-31.837 15.201c-1.868.892-3.81 1.42-5.744 1.546-1.935.126-3.742-.108-5.542-.745-1.8-.636-3.353-1.59-4.898-2.947-1.425-1.314-2.603-2.946-3.573-4.976-1.861-3.899-2.074-7.686-.72-11.325.637-1.8 1.672-3.391 3.029-4.937 1.395-1.464 3.108-2.68 5.139-3.65l3.248-1.551 3.956 8.284-2.762 1.318c-1.624.776-2.772 1.923-3.564 3.398-.792 1.475-.74 3.046-.003 4.589.97 2.03 2.279 3.1 3.807 3.169 1.649.11 3.428-.34 5.377-1.271l29.563-14.116c1.706-.814 2.893-1.88 3.68-3.153.789-1.274.737-2.845-.155-4.713a5.443 5.443 0 00-1.178-1.632c-.434-.49-1.03-.904-1.708-1.279-.639-.293-1.482-.389-2.368-.365-.886.024-1.939.327-3.076.87l-2.842 1.358zM64.456 493.694l-3.095-8.642 60.327-21.607 3.096 8.642zM118.645 454.96l-62.214 15.353-6.555-26.564 8.389-2.07 4.355 17.65 18.262-4.506-3.794-15.378 8.388-2.07 3.795 15.379 18.262-4.507-4.356-17.65 8.913-2.2zM110.41 416.69l-54.975 7.173 1.374 10.531-8.567 1.118-3.936-30.164 8.567-1.118 1.375 10.53 54.974-7.172zM107.602 384.416l-27.089.28-36.858 12.98-.1-9.72 25.393-7.642-.002-.18-25.545-7.117-.1-9.72 37.118 12.219 27.088-.28zM109.533 341.33l-63.016-11.628 4.964-26.906 8.497 1.568-3.299 17.878 19.118 3.528 2.874-15.578 8.496 1.568-2.874 15.577 26.906 4.965zM69.156 293.967c-2.484-.8-4.488-1.92-6.096-3.383-1.608-1.465-2.791-3.075-3.607-4.946-.757-1.757-1.202-3.602-1.222-5.594-.047-1.907.162-3.73.742-5.53.58-1.798 1.475-3.401 2.655-5.006 1.152-1.52 2.591-2.758 4.26-3.828 1.726-.956 3.627-1.573 5.788-1.822 2.16-.249 4.44.013 6.924.814l32.208 10.383c2.57.829 4.659 1.975 6.181 3.412 1.523 1.436 2.706 3.047 3.463 4.804.816 1.87 1.26 3.716 1.308 5.623.02 1.992-.19 3.815-.77 5.614-.58 1.799-1.475 3.402-2.627 4.922-1.18 1.605-2.619 2.843-4.345 3.8-1.669 1.07-3.57 1.686-5.645 1.962-2.075.277-4.44-.013-7.01-.841zm35.024 1.647c2.142.69 3.877.587 5.206-.308 1.386-.782 2.342-1.987 2.867-3.615.525-1.627.453-3.163-.189-4.694-.583-1.417-1.932-2.514-4.073-3.204l-32.208-10.384c-2.141-.69-3.876-.588-5.263.195-1.329.895-2.285 2.1-2.81 3.727-.524 1.628-.452 3.164.131 4.581.641 1.531 1.99 2.628 4.131 3.318zM82.574 239.352l17.897 8.883 2.32-4.676c.72-1.451 1.04-2.7 1.076-3.787.037-1.087-.207-2.012-.692-2.855-.526-.764-1.333-1.566-2.382-2.288-.968-.68-2.218-1.402-3.669-2.122s-2.781-1.28-3.99-1.678c-1.128-.36-2.255-.517-3.301-.433-2.052.287-3.738 1.862-5.138 4.684zm45.58 32.87l-57.4-28.487 6.561-13.222c4.802-9.674 12.845-11.71 24.051-6.149 3.386 1.68 6.048 3.605 7.866 5.813 1.818 2.208 2.833 5.023 2.963 8.403l30.602 4.136-4.32 8.706-28.31-4.504-2.44 4.918 24.507 12.163zM103.119 186.622l5.35-7.46 52.076 37.339-5.35 7.46zM165.409 209.455l-47.77-42.712 5.88-6.575 38.02 15.403.12-.134-28.783-25.735 6.12-6.844 47.769 42.712-5.759 6.44-38.074-15.208-.12.134 28.716 25.675zM197.531 176.017l-36.239-41.956-8.037 6.942-5.648-6.538 23.022-19.885 5.647 6.539-8.037 6.942 36.24 41.956zM215.863 160.637l-35.681-53.226 22.726-15.235 4.81 7.176-15.1 10.124 10.474 15.624 13.157-8.82 4.811 7.176-13.157 8.82 10.474 15.624 15.1-10.123 5.112 7.625zM227.385 88.485l8.814 17.93 4.684-2.302c1.454-.715 2.466-1.513 3.156-2.354.69-.84 1.058-1.723 1.185-2.688.047-.926-.107-2.054-.501-3.264-.355-1.13-.91-2.461-1.624-3.915-.714-1.454-1.43-2.707-2.148-3.758-.677-.97-1.477-1.781-2.359-2.35-1.804-1.02-4.1-.793-6.927.597zm16.218 53.803l-28.268-57.507 13.246-6.512c9.692-4.764 17.317-1.492 22.836 9.735 1.668 3.392 2.612 6.538 2.714 9.396.101 2.859-.804 5.71-2.754 8.474l21.788 21.883-8.723 4.288-19.743-20.782-4.927 2.422 12.07 24.554zM277.938 125.846L257.993 64.95l8.382-2.745 25.189 32.378.17-.056-12.017-36.692 8.724-2.857 19.946 60.897-8.211 2.689-25.332-32.237-.171.056 11.99 36.607zM316.476 114.018l-11.132-63.106 26.944-4.753 1.501 8.509-17.904 3.158 3.268 18.524 15.6-2.752 1.5 8.51-15.599 2.75 3.268 18.525 17.903-3.158 1.595 9.04zM355.337 108.361L351.87 53.03l-10.599.664-.54-8.623 30.36-1.903.54 8.623-10.599.665 3.468 55.33zM395.93 107.788l7.94-63.586 13.306 1.661c2.947.368 5.392 1.127 7.334 2.277 1.943 1.15 3.406 2.51 4.556 4.196s1.83 3.494 2.222 5.448c.29 2.031.302 4.119.045 6.173l-.29 2.322c-.212 1.697-.49 3.204-.903 4.331a10.986 10.986 0 01-1.641 2.97c-1.194 1.574-2.98 2.802-5.18 3.707 2.021 1.25 3.44 2.969 4.176 5.056.737 2.087.939 4.833.515 8.227l-.446 3.572c-.703 5.627-2.578 9.746-5.625 12.359-3.136 2.601-7.613 3.584-13.596 2.837zm12.789-28.334l-2.543 20.362 3.93.49c1.875.235 3.337.145 4.476-.257 1.05-.413 1.942-1.027 2.6-1.942a8.02 8.02 0 001.407-3.271c.256-1.329.524-2.747.714-4.265.2-1.607.29-3.047.256-4.23-.034-1.184-.257-2.3-.693-3.17-.524-.883-1.25-1.608-2.177-2.177-.937-.48-2.255-.826-3.952-1.038zm3.189-25.542l-2.186 17.505 4.108.513c3.037.379 5.18-.08 6.452-1.553 1.172-1.396 1.976-3.472 2.344-6.42.357-2.857.089-5.067-.894-6.641-1.072-1.585-3.037-2.556-6.073-2.935zM433.915 113.216l16.658-61.877 8.864 2.386-14.271 53.013 17.555 4.726-2.387 8.864zM491.703 108.533l4.64-23.192-.166-.068-12.969 19.78zm-29.484 12.137l37.539-53.869 7.079 2.901-11.057 64.72-8.494-3.48 2.723-13.766-11.576-4.743-7.72 11.718zM548.283 112.08l-7.943-4.6 1.038-1.792c1.037-1.791 1.595-3.652 1.506-5.472-.09-1.82-1.209-3.3-3.233-4.474-1.09-.631-2.083-.894-3.009-.91a5.198 5.198 0 00-2.538.61c-.795.475-1.513.995-2.165 1.762a17.844 17.844 0 00-1.812 2.59 28.425 28.425 0 00-1.424 2.816c-.328.746-.578 1.537-.582 2.263a4.868 4.868 0 00.544 2.291c.32.706.906 1.67 1.692 2.645l4.676 5.933c1.385 1.739 2.336 3.33 2.93 4.818.549 1.566.774 3.152.72 4.681-.177 1.562-.6 3.19-1.268 4.882-.714 1.771-1.674 3.607-2.847 5.632-1.353 2.336-2.85 4.382-4.445 6.058-1.64 1.754-3.411 3.016-5.236 3.831-1.947.848-3.98 1.126-6.268.945-2.288-.18-4.616-1.01-7.186-2.498-1.947-1.128-3.557-2.477-4.787-4.125-1.229-1.649-2.167-3.44-2.659-5.285-.491-1.845-.691-3.833-.367-5.83a14.33 14.33 0 011.887-5.771l1.715-2.96 7.943 4.602-1.444 2.492c-.857 1.48-1.19 2.952-.931 4.661.134 1.742 1.22 3.1 3.245 4.273 1.324.767 2.504 1.242 3.554 1.226.926.017 1.865-.167 2.66-.643a7.647 7.647 0 002.313-2.196c.62-.89 1.296-2.058 2.018-3.304a48.203 48.203 0 001.92-3.672c.463-.98.68-1.894.685-2.62a6.92 6.92 0 00-.59-2.213c-.397-.75-.95-1.591-1.737-2.567l-4.332-5.63c-2.614-3.387-3.868-6.61-3.604-9.577.14-2.935 1.186-6.177 3.216-9.682a24.16 24.16 0 014.286-5.422c1.627-1.553 3.432-2.692 5.367-3.34 1.857-.692 3.89-.97 6.1-.834 2.086.169 4.337.952 6.673 2.306 1.947 1.127 3.59 2.6 4.82 4.248 1.229 1.648 2.044 3.473 2.536 5.318.97 3.89.469 7.448-1.38 10.641zM531.068 155.54l39.26-50.644 21.624 16.763-5.294 6.828-14.368-11.138-11.525 14.866 12.52 9.705-5.294 6.828-12.52-9.705-11.524 14.867 14.369 11.138-5.625 7.255zM557.146 176.134l45.345-45.277 9.475 9.489c2.099 2.102 3.561 4.203 4.387 6.304.826 2.1 1.142 4.073 1.014 6.11-.13 2.036-.703 3.881-1.596 5.663a23.32 23.32 0 01-3.758 4.897l-1.656 1.653c-1.21 1.209-2.356 2.226-3.375 2.862-1.019.635-2.1 1.08-3.12 1.334-1.909.507-4.072.379-6.363-.26.826 2.228.888 4.456.186 6.555-.702 2.1-2.23 4.39-4.65 6.806l-2.548 2.544c-4.013 4.006-8.023 6.104-12.033 6.292-4.073.124-8.208-1.852-12.469-6.12zm27.503-14.489l-14.52 14.499 2.798 2.802c1.335 1.338 2.544 2.166 3.689 2.549 1.081.319 2.163.383 3.245.066a8.02 8.02 0 003.12-1.716c1.019-.89 2.101-1.844 3.184-2.925 1.147-1.145 2.102-2.226 2.803-3.18.7-.954 1.21-1.972 1.402-2.927.128-1.018.001-2.036-.38-3.055-.444-.955-1.27-2.037-2.48-3.247zm18.215-18.187l-12.483 12.464 2.925 2.93c2.162 2.165 4.135 3.12 6.044 2.74 1.782-.38 3.692-1.524 5.794-3.623 2.038-2.035 3.185-3.943 3.377-5.789.129-1.909-.824-3.882-2.986-6.048zM612.14 204.09l15.753-17.643-.11-.143-21.203 10.48zm-31.569-4.479l59.66-27.417 4.633 6.088-42.329 50.193-5.559-7.306 9.323-10.487-7.575-9.955-12.593 6.19zM604.791 232.432l55.736-31.618 4.53 7.985-47.752 27.088 8.97 15.813-7.984 4.53zM620.91 261.595l59.22-24.48 3.508 8.484-50.737 20.973 6.945 16.801-8.483 3.507zM694.381 306.926l-19.604 3.856 1.007 5.122c.313 1.59.821 2.774 1.454 3.658.632.885 1.39 1.47 2.288 1.843.882.285 2.011.43 3.282.363 1.183-.049 2.613-.238 4.203-.551 1.59-.313 2.985-.679 4.186-1.099 1.114-.402 2.104-.964 2.883-1.667 1.452-1.478 1.83-3.754 1.222-6.845zm-56.17 1.692l62.876-12.367 2.849 14.482c2.084 10.597-3.055 17.112-15.33 19.526-3.709.73-6.992.825-9.779.18-2.787-.643-5.306-2.258-7.468-4.86l-26.79 15.36-1.876-9.537 25.196-13.67-1.06-5.387-26.845 5.28zM645.076 346.372l63.956-3.983 1.7 27.307-8.622.537-1.13-18.145-18.774 1.17.985 15.809-8.624.537-.984-15.81-18.774 1.17 1.13 18.144-9.162.57zM690.533 412.15l.56-9.163 2.066.126c2.066.127 3.98-.207 5.568-1.102 1.587-.895 2.41-2.558 2.553-4.894.077-1.257-.133-2.262-.532-3.098a5.198 5.198 0 00-1.682-1.996c-.78-.499-1.567-.907-2.545-1.147-.977-.24-2.05-.396-3.127-.462a28.425 28.425 0 00-3.155-.012c-.814.04-1.634.17-2.285.491-.65.321-1.312.822-1.805 1.513-.488.601-1.087 1.557-1.608 2.697l-3.212 6.837c-.935 2.017-1.932 3.579-2.997 4.776a12.783 12.783 0 01-3.864 2.74c-1.476.54-3.12.891-4.934 1.05-1.903.155-3.974.119-6.31-.024-2.695-.165-5.194-.588-7.407-1.264-2.302-.682-4.224-1.7-5.77-2.967-1.63-1.362-2.788-3.056-3.65-5.183-.862-2.126-1.163-4.579-.982-7.543.137-2.246.623-4.29 1.546-6.128.924-1.837 2.106-3.478 3.536-4.743 1.43-1.265 3.118-2.334 5.049-2.937a14.33 14.33 0 016.005-.896l3.414.209-.56 9.162-2.874-.175c-1.707-.104-3.172.257-4.585 1.253-1.498.9-2.226 2.479-2.368 4.814-.093 1.527.01 2.796.493 3.727.4.836.985 1.593 1.766 2.092a7.647 7.647 0 003 1.085c1.072.155 2.42.238 3.857.326 1.707.104 3.06.096 4.143.072 1.084-.024 1.999-.238 2.65-.56a6.92 6.92 0 001.715-1.517c.493-.692.997-1.563 1.518-2.703l3.095-6.393c1.859-3.854 4.18-6.417 6.951-7.51 2.688-1.189 6.055-1.704 10.098-1.457a24.16 24.16 0 016.767 1.405c2.117.76 3.943 1.864 5.388 3.305 1.45 1.35 2.61 3.044 3.477 5.081.783 1.941 1.09 4.304.925 7-.137 2.245-.718 4.374-1.642 6.21-.924 1.838-2.19 3.384-3.62 4.649-3.045 2.609-6.451 3.753-10.134 3.528zM643.983 416.106l62.86 12.442-5.311 26.84-8.476-1.678 3.53-17.834-18.452-3.653-3.076 15.539-8.475-1.677 3.075-15.539-18.452-3.652-3.53 17.834-9.005-1.782zM652.573 473.397l23.453 3.06.057-.171-20.613-11.6zm-14.105-28.594l56.286 33.806-2.415 7.258-65.32-6.649 2.897-8.71 13.919 1.784 3.948-11.87-12.213-6.909zM670.528 516.537l-17.84-8.998-2.35 4.66c-.73 1.447-1.056 2.694-1.1 3.78-.044 1.087.194 2.014.674 2.86.52.767 1.323 1.575 2.367 2.303.963.688 2.209 1.416 3.655 2.146 1.447.73 2.773 1.298 3.979 1.704 1.126.367 2.252.531 3.299.455 2.053-.275 3.75-1.839 5.168-4.651zm-45.366-33.163l57.214 28.857-6.647 13.179c-4.863 9.643-12.92 11.627-24.09 5.993-3.375-1.702-6.024-3.643-7.828-5.863-1.803-2.22-2.8-5.041-2.909-8.422l-30.574-4.333 4.377-8.679 28.28 4.687 2.471-4.902-24.428-12.32zM606.055 551.698l-3.266-2.24c-1.633-1.12-2.989-2.485-3.992-4.046-1.026-1.686-1.802-3.419-2.152-5.296a16.34 16.34 0 01-.077-5.618c.276-1.993 1.048-3.755 2.219-5.463.967-1.41 2.207-2.742 3.596-3.972 1.39-1.23 3.048-2.057 4.827-2.583 1.78-.526 3.777-.575 5.845-.248 2.044.202 4.303 1.205 6.752 2.884l29.097 19.952c1.707 1.17 3.136 2.587 4.214 4.199 1.077 1.612 1.78 3.293 2.129 5.17.35 1.877.301 3.699-.1 5.716-.424 1.891-1.247 3.728-2.519 5.584-2.443 3.562-5.616 5.643-9.444 6.292-1.876.35-3.772.25-5.79-.15-1.965-.476-3.876-1.35-5.732-2.622l-2.969-2.036 5.192-7.57 2.524 1.73c1.484 1.018 3.051 1.437 4.725 1.384 1.673-.053 3.007-.884 3.974-2.294 1.272-1.856 1.544-3.525.838-4.882-.73-1.483-2.011-2.797-3.792-4.019l-27.019-18.526c-1.558-1.07-3.075-1.563-4.572-1.608-1.497-.044-2.831.787-4.002 2.494a5.443 5.443 0 00-.823 1.837c-.207.621-.267 1.344-.252 2.118.066.7.405 1.478.87 2.233.464.755 1.253 1.515 2.292 2.227l2.598 1.782zM586.277 547.304l47.386 43.137-6.18 6.789-20.299-18.479-7.633 8.386 20.298 18.478-6.18 6.789-47.386-43.137 6.18-6.789 21.098 19.206 7.633-8.386-21.097-19.205z" fill="#fff" fill-rule="nonzero"/><g><path d="M504.952 573.498h25.67c11.729 0 21.25 9.522 21.25 21.25v18.674c19.15 5.708 33.126 23.46 33.126 44.45v21.455c-59.15 40.787-130.807 64.67-208 64.67-77.193 0-148.851-23.883-208-64.67v-21.454c0-20.991 13.976-38.743 33.125-44.451v-18.674c0-11.728 9.522-21.25 21.25-21.25h25.67c36.816 24.032 80.767 38 127.955 38s91.139-13.968 127.954-38z" fill="#9a7d7f"/></g><g><path d="M202.123 587.101v-.016c0-22.815 78.359-41.337 174.875-41.337s174.875 18.522 174.875 41.337v24.624H517.43c-31.887 10.14-82.938 16.712-140.433 16.712-57.495 0-108.546-6.572-140.433-16.712h-34.442z" fill="#9a7d7f"/></g><g><path d="M472.362 473.7c12.075-28.134 51.08-48.76 97.279-48.76 12.666 0 24.79 1.55 35.969 4.381a234.957 234.957 0 01-11.31 36.103 225.607 225.607 0 01-1.547 3.735l-.008.018a228.165 228.165 0 01-1.337 3.085l-.018.041-.021.048-.172.39-.26.578-.015.037c-.302.674-.607 1.347-.918 2.023l-.02.042-.033.073-.215.468-.19.408-.04.086-.028.06c-.308.66-.62 1.32-.934 1.98l-.011.024-.032.067-.277.577-.14.29-.046.095-.05.102-.15.311-.25.512-.05.102-.02.042c-.315.643-.633 1.285-.953 1.924l-.041.082-.067.132-.193.383-.187.37-.07.135-.044.09-.1.197-.357.697-.022.042c-.163.318-.327.635-.494.955l-.028.054-.073.14-.25.478-.14.266-.068.131-.068.13-.137.26-.253.474-.078.148-.03.055-.501.936-.01.02-.047.085-.341.631-.101.183-.058.107-.088.16-.18.33-.192.35-.091.165-.056.1-.09.165-.375.673-.036.065-.007.012c-.17.305-.342.61-.515.917l-.04.072-.098.172-.237.418-.147.258-.086.151-.08.137-.13.228-.266.464-.096.167-.033.057-.526.904-.02.032-.08.136-.323.552-.108.184-.071.12-.1.166-.175.298-.208.348-.105.176-.058.098-.087.145-.417.693-.031.051-.004.008-.544.894-.05.082-.11.177-.235.385-.163.263-.096.156-.082.133-.13.21-.295.474-.101.162-.032.05c-.185.297-.372.594-.557.887l-.025.04-.094.147-.324.512-.123.191-.078.124-.102.158-.18.281-.232.36-.11.172-.058.088c-.38.588-.763 1.175-1.151 1.763l-.055.084-.111.168-.244.367-.184.277-.101.152-.081.12-.132.198-.34.505-.092.138-.026.038c-.198.294-.397.587-.596.878l-.028.042-.095.14-.335.49-.143.206-.082.12-.1.142-.186.272-.266.382-.108.156-.052.074c-.406.582-.814 1.162-1.227 1.743l-.057.081-.107.15-.256.358-.213.296-.1.141-.074.103-.14.192-.398.552-.07.095-.016.023c-.212.292-.425.583-.64.876l-.03.04-.088.12-.353.48-.167.225-.082.111-.092.123-.197.266-.31.413-.097.131-.043.057c-.433.577-.87 1.152-1.308 1.726l-.057.075-.1.128-.27.353-.247.32-.095.124-.066.084-.145.188-.477.613-.03.037-.005.008-.687.874-.03.037-.078.1-.373.47-.196.246-.08.1-.081.102-.21.261-.36.45-.08.1-.033.04c-.461.571-.925 1.141-1.391 1.708l-.056.068-.088.106-.286.347-.287.346-.086.105-.056.066c-.473.57-.95 1.136-1.428 1.7l-.027.032-.068.08-.392.461-.228.266-.075.087-.072.084-.22.256-.418.485-.058.066-.021.025c-.49.564-.981 1.127-1.477 1.688l-.053.061-.078.087-.3.34-.33.37-.076.084-.044.05c-.501.56-1.005 1.12-1.512 1.676l-.025.028-.06.064-.408.448-.262.285-.07.075-.061.067-.228.248-.485.523-.03.031-.008.01c-.518.557-1.04 1.111-1.563 1.664l-.051.053-.166.175-.214.225-.223.234-.216.225-.055.057-.142.15-.151.155-.063.066-.196.202-.23.24-.23.234-.171.177-.076.08-.166.17-.134.137-.04.04-.233.238-.24.244-.22.223-.14.142-.098.1-.19.192-.117.117-.014.014-.362.364-.16.16-.207.207-.113.113-.12.118-.214.214-.248.246-.265.262-.02.018-.125.125-.193.19-.087.085-.141.138-.241.236-.28.271-.193.19-.04.038-.151.147-.175.17-.063.061-.162.156-.267.258-.271.26-.162.155-.061.058-.176.17-.157.148-.04.038-.181.172-.296.281-.256.242-.136.13-.082.075-.202.191-.138.13-.015.013-.193.181-.334.312-.238.222-.112.104-.103.095-.23.213-.4.368-.15.14-.004.003-.131.12-.22.201-.088.081-.123.112-.258.236-.338.306-.171.155-.026.024-.156.142-.2.18-.065.058-.142.128-.288.26-.312.277-.156.14-.048.042-.182.162-.178.158-.042.038-.158.14-.323.285-.288.253-.136.12-.07.061-.21.184-.156.136-.02.017-.156.136a233.325 233.325 0 01-4.68 3.975c-35.771 29.591-77.746 46.768-120.683 52.027-.245-.115-.49-.23-.733-.346l-.233.463c-76.46 9.042-155.83-19.678-208.511-83.362-19.766-23.894-33.993-50.556-42.833-78.435a55.34 55.34 0 0132.469 2.676c12.27 4.895 21.839 13.68 27.853 24.376a61.459 61.459 0 0138.933 2.263c11.786 4.702 21.326 12.636 28.007 22.38 19.253-12.85 43.428-17.746 66.944-12.293 22.907-27.31 73.744-34.31 123.236-14.569.483.192.964.387 1.444.583z" fill="#fff"/></g><g><path d="M280.151 557.617c21.483-7.18 56.874-11.869 96.861-11.869 39.975 0 75.355 4.686 96.831 11.859-57.918 44.526-137.663 43.094-193.692.01z" fill="#9a7d7f"/></g><g><path d="M150.58 438.11c58.83-14.052 122.836-7.213 180.021 24.038 57.185 31.25 97.51 81.425 117.455 138.527M603.414 316.385c-58.83 14.053-122.836 7.214-180.02-24.037-57.186-31.25-97.51-81.425-117.455-138.526" fill="none" stroke="#d11d43" stroke-width="30" stroke-linecap="butt" stroke-dasharray="30,36,0,0"/></g><g><circle cx="536" cy="420" r="281" fill="none" stroke="#112441" stroke-width="15.31" transform="translate(-323.045 -171.543) scale(1.30605)"/><circle cx="586.5" cy="338.5" r="248.5" fill="none" stroke="#112441" stroke-width="21.19" transform="rotate(-2.857 1623.853 3884.008) scale(.94366)"/></g><g><path d="M332.594 181.738l-16.624 52.704 29.19 46.926-52.705-16.624-46.926 29.188 16.624-52.703-29.188-46.926 52.703 16.623z" fill="#112441" stroke="#fff" stroke-width="10.005042799999998" stroke-linecap="butt"/><path d="M208.874 323.868l-25.64 29.48 5.69 38.654-29.48-25.64-38.654 5.689 25.64-29.48-5.69-38.653 29.48 25.64zM326.077 399.152l-36.734-13.116a2.247 2.247 0 00-2.089.307l-31.42 23.112 13.117-36.734a2.247 2.247 0 00-.306-2.09l-23.112-31.419 36.733 13.117a2.258 2.258 0 002.089-.307l31.42-23.112-13.116 36.734a2.257 2.257 0 00.305 2.089z" fill="#112441" stroke="#fff" stroke-width="9.9992725" stroke-linecap="butt"/></g></svg>