<?xml version="1.0" standalone="no"?>
<!DOCTYPE svg PUBLIC "-//W3C//DTD SVG 20010904//EN"
 "http://www.w3.org/TR/2001/REC-SVG-20010904/DTD/svg10.dtd">
<svg version="1.0" xmlns="http://www.w3.org/2000/svg"
 width="755.000000pt" height="755.000000pt" viewBox="0 0 755.000000 755.000000"
 preserveAspectRatio="xMidYMid meet">
<metadata>
Created by potrace 1.14, written by Peter Selinger 2001-2017
</metadata>
<g transform="translate(0.000000,755.000000) scale(0.100000,-0.100000)"
fill="#000000" stroke="none">
<path d="M3539 7546 c-2 -2 -42 -6 -89 -9 -104 -8 -211 -22 -350 -47 -1439
-258 -2612 -1348 -2981 -2770 -32 -123 -75 -339 -84 -430 -4 -30 -8 -61 -10
-67 -25 -78 -26 -849 -1 -892 2 -3 6 -33 10 -66 3 -33 8 -71 11 -85 3 -14 12
-63 20 -110 37 -211 152 -592 232 -770 33 -72 163 -336 185 -375 305 -534 744
-999 1253 -1327 468 -301 983 -489 1550 -568 136 -19 261 -25 500 -25 275 0
383 8 645 51 213 34 517 121 750 214 103 41 376 171 435 207 235 143 303 188
421 277 142 106 197 152 318 266 434 409 750 881 959 1435 93 247 173 565 202
804 4 30 9 63 11 75 26 130 25 699 -1 886 -2 19 -9 69 -15 110 -38 270 -119
571 -230 851 -37 92 -183 399 -209 439 -6 8 -46 74 -91 147 -447 731 -1188
1318 -2005 1588 -175 58 -361 107 -490 129 -16 3 -68 12 -115 20 -47 8 -116
17 -155 21 -38 4 -81 9 -95 12 -29 5 -575 14 -581 9z"/>
</g>
</svg>
